<?xml version="1.0" encoding="utf-8"?>
<!-- Generator: Adobe Illustrator 16.0.0, SVG Export Plug-In . SVG Version: 6.00 Build 0)  -->
<!DOCTYPE svg PUBLIC "-//W3C//DTD SVG 1.1//EN" "http://www.w3.org/Graphics/SVG/1.1/DTD/svg11.dtd">
<svg version="1.1" id="Layer_1" xmlns="http://www.w3.org/2000/svg" xmlns:xlink="http://www.w3.org/1999/xlink" x="0px" y="0px"
	 width="512px" height="512px" viewBox="0 0 512 512" enable-background="new 0 0 512 512" xml:space="preserve">
<path fill="#050505" d="M512,256c0,0.9,0,1.8,0,2.7c-0.4,36.5-33.6,61.3-70.1,61.3H344c-26.5,0-48,21.5-48,48c0,3.4,0.4,6.7,1,9.9
	c2.1,10.199,6.5,20,10.8,29.899c6.101,13.8,12.101,27.5,12.101,42c0,31.8-21.601,60.7-53.4,62c-3.5,0.101-7,0.2-10.6,0.2
	C114.6,512,0,397.4,0,256C0,114.6,114.6,0,256,0C397.4,0,512,114.6,512,256z M128,288c0-17.674-14.327-32-32-32s-32,14.326-32,32
	s14.327,32,32,32S128,305.674,128,288z M128,192c17.673,0,32-14.327,32-32s-14.327-32-32-32s-32,14.327-32,32S110.327,192,128,192z
	 M288,96c0-17.673-14.326-32-32-32c-17.673,0-32,14.327-32,32s14.327,32,32,32C273.674,128,288,113.673,288,96z M384,192
	c17.673,0,32-14.327,32-32s-14.327-32-32-32s-32,14.327-32,32S366.327,192,384,192z"/>
</svg>
